<svg width="120" height="25" viewBox="0 0 855 178" fill="none" xmlns="http://www.w3.org/2000/svg" aria-label="Needle"><path d="M350.775 47.4165C385.728 47.4165 409.682 74.0593 409.682 112.923V120.5H320.467C320.467 139.809 333.665 153.008 353.219 153.008C366.907 153.008 377.417 146.41 381.084 135.411L409.438 137.854C405.527 161.808 383.773 177.452 354.686 177.452C317.044 177.452 291.379 151.298 291.379 112.19C291.38 74.3038 316.067 47.4166 350.775 47.4165ZM478.25 47.4165C513.202 47.4168 537.156 74.0595 537.156 112.923V120.5H447.939C447.939 139.81 461.139 153.008 480.693 153.008C494.381 153.008 504.892 146.41 508.558 135.411L536.912 137.854C533.002 161.808 511.247 177.452 482.16 177.452C444.518 177.452 418.854 151.298 418.854 112.19C418.854 74.3037 443.541 47.4165 478.25 47.4165ZM669.03 173.542H640.922V150.077C633.834 167.187 618.921 177.452 599.367 177.452C568.326 177.452 546.328 150.566 546.328 112.192C546.328 74.0614 567.837 47.4189 599.124 47.4189C618.678 47.4189 633.834 57.9277 640.922 75.0375V2.44366H669.03V173.542ZM795.985 47.4165C830.938 47.4166 854.891 74.0594 854.892 112.923V120.5H765.677C765.677 139.81 778.875 153.008 798.429 153.008C812.117 153.008 822.627 146.41 826.293 135.411L854.648 137.854C850.737 161.808 828.982 177.452 799.896 177.452C762.254 177.452 736.589 151.298 736.589 112.19C736.589 74.3037 761.277 47.4165 795.985 47.4165ZM236.302 47.4165C261.722 47.4165 276.633 66.2374 276.634 98.0124V173.542H248.523V98.9918C248.523 81.6375 240.457 71.8605 226.769 71.8605C208.437 71.8611 196.46 88.726 196.46 114.146V173.542H168.352V51.3268H196.46V72.5938C203.793 56.9505 218.215 47.4165 236.302 47.4165ZM720.95 173.542H692.842V0H720.95V173.542ZM24.289 124.779C37.7023 124.78 48.575 135.653 48.5755 149.066C48.5755 162.48 37.7026 173.354 24.289 173.355C10.8753 173.355 6.44474e-05 162.48 0 149.066C0.000533781 135.653 10.8756 124.78 24.289 124.779ZM95.4727 50.8543C108.876 50.8543 119.74 61.7118 119.757 75.1113L119.764 75.1138L119.767 166.927L119.749 166.93C119.642 170.496 116.727 173.355 113.135 173.355C111.705 173.355 110.385 172.897 109.303 172.127L109.271 172.115L9.13237 94.134L9.13483 94.1168C3.56945 89.6662 0.000353119 82.8235 0 75.1433C0 61.7295 10.8752 50.8547 24.289 50.8543C32.6007 50.8547 39.9348 55.0317 44.3133 61.3992L87.4133 120.345L73.1278 84.6768C71.8774 81.7499 71.1864 78.5273 71.1862 75.1433C71.1862 61.7296 82.0592 50.8549 95.4727 50.8543ZM607.924 71.8605C588.37 71.8605 575.169 87.9929 575.169 112.436C575.169 136.878 588.37 153.011 607.924 153.011C627.478 153.01 640.676 136.878 640.676 112.436C640.676 87.9933 627.478 71.8609 607.924 71.8605ZM350.532 71.8605C332.689 71.8605 320.467 82.8596 320.467 98.9918H380.84C380.84 82.8598 368.375 71.8607 350.532 71.8605ZM478.004 71.8605C460.161 71.8609 447.939 82.8599 447.939 98.9918H508.314C508.314 82.8596 495.847 71.8605 478.004 71.8605ZM795.742 71.8605C777.898 71.8605 765.677 82.8596 765.677 98.9918H826.05C826.05 82.8599 813.584 71.8609 795.742 71.8605Z" fill="#FFFFFF"/></svg>
